<svg width="1869" height="301" viewBox="0 0 1869 301" fill="none" xmlns="http://www.w3.org/2000/svg"><path fill-rule="evenodd" clip-rule="evenodd" d="M186.62 175.202a39.712 39.712 0 0 1-.253-39.734l49.136-86.392a36.526 36.526 0 0 1 2.123-3.286l35.285 60.257a39.617 39.617 0 0 1 .252 39.683l-49.135 86.443c-.658 1.112-1.365 2.224-2.123 3.235l-35.285-60.206ZM237.626 45.79l-14.963-25.579A39.687 39.687 0 0 0 188.136.598l-99.434.606c-14.205.101-27.247 7.785-34.274 20.12L5.242 107.716c-6.976 12.334-6.875 27.5.253 39.733l50.298 85.785C62.921 245.468 76.115 253 90.27 252.899l99.485-.657c12.84-.101 24.821-6.42 32.151-16.834l14.963 25.579c7.178 12.233 20.321 19.664 34.526 19.664l99.434-.657a39.73 39.73 0 0 0 34.274-20.069l49.187-86.442a39.862 39.862 0 0 0-.253-39.683l-50.299-85.836c-7.127-12.233-20.321-19.715-34.526-19.614l-99.435.607a39.74 39.74 0 0 0-32.15 16.833Z" fill="url(#a)"/><path d="M588.962 241.575V47.225h31.096v168.807h93.288v25.543H588.962Zm138.264-72.742c0-24.988 6.478-43.868 19.435-56.639 12.956-12.957 30.17-19.435 51.641-19.435 45.348 0 68.022 27.024 68.022 81.072v3.609H756.933c1.111 14.993 5.461 26.468 13.049 34.428 7.774 7.773 17.862 11.66 30.264 11.66 17.584 0 29.522-7.496 35.815-22.489l28.32 1.944c-3.887 13.142-11.383 23.414-22.489 30.818-10.921 7.404-24.803 11.106-41.646 11.106-22.397 0-40.166-6.386-53.308-19.157-13.142-12.772-19.712-31.744-19.712-56.917Zm29.985-10.828h79.683c-.555-13.697-4.257-24.433-11.105-32.207-6.849-7.774-16.011-11.661-27.487-11.661-11.476 0-20.916 3.702-28.32 11.106-7.218 7.404-11.475 18.325-12.771 32.762Zm137.487 83.57V96.091h27.487v26.931c9.254-20.175 26.376-30.263 51.363-30.263 16.289 0 28.692 4.627 37.202 13.882 8.52 9.07 12.77 22.489 12.77 40.258v94.676h-29.704v-85.236c0-26.098-10.365-39.147-31.096-39.147-12.216 0-21.656 4.072-28.319 12.216-6.663 7.959-9.995 18.972-9.995 33.039v79.128h-29.708Zm173.202-16.936c-11.29-13.697-16.94-32.299-16.94-55.806 0-23.507 5.65-42.017 16.94-55.528 11.47-13.698 26.28-20.546 44.42-20.546 10.37 0 19.71 2.499 28.04 7.496 8.33 4.998 14.99 12.031 19.99 21.101V37.231h29.71v204.344h-27.49v-29.707c-4.81 10.55-11.66 18.694-20.54 24.432-8.89 5.738-18.88 8.607-29.99 8.607-17.95 0-32.67-6.756-44.14-20.268Zm23.32-94.121c-7.22 9.625-10.83 22.397-10.83 38.315s3.61 28.69 10.83 38.315c7.4 9.625 17.31 14.437 29.71 14.437 12.58 0 22.49-4.812 29.7-14.437 7.41-9.625 11.11-22.397 11.11-38.315s-3.7-28.69-11.11-38.315c-7.21-9.625-17.12-14.437-29.7-14.437-12.4 0-22.31 4.812-29.71 14.437Zm150.06-54.14c0-15.733 3.33-26.746 9.99-33.04 6.85-6.293 17.21-9.44 31.1-9.44 6.29 0 12.95.464 19.99 1.389v22.49c-6.67-.371-11.02-.556-13.05-.556-6.85 0-11.66 1.666-14.44 4.997-2.59 3.147-3.89 9.07-3.89 17.77V96.09h31.38v22.489h-31.38v122.995h-29.7V118.58h-27.49V96.09h27.49V76.379Zm87.18-35.816h31.37v33.04h-31.37v-33.04Zm.83 201.013V96.091H1359v145.484h-29.71Zm66.74 0V96.091h27.48v26.931c9.26-20.175 26.38-30.263 51.37-30.263 16.29 0 28.69 4.627 37.2 13.882 8.52 9.07 12.77 22.489 12.77 40.258v94.676h-29.7v-85.236c0-26.098-10.37-39.147-31.1-39.147-12.22 0-21.66 4.072-28.32 12.216-6.66 7.959-10 18.972-10 33.039v79.128h-29.7Zm163.48-167.973v-33.04h31.37v33.04h-31.37Zm.83 167.973V96.091h29.71v145.484h-29.71Zm148.87-122.995h-35.26v78.295c0 8.699 1.2 14.622 3.61 17.769 2.59 3.147 7.49 4.72 14.71 4.72 4.82 0 10.46-.463 16.94-1.388v23.877c-8.33 1.296-15.83 1.943-22.49 1.943-15.18 0-26.1-3.146-32.76-9.439-6.48-6.479-9.72-17.399-9.72-32.762V118.58h-30.26V96.646h22.76c3.34 0 5.65-.648 6.95-1.944 1.48-1.48 2.22-3.794 2.22-6.94V63.606h28.04V96.09h35.26v22.489Zm128.14-22.49H1869l-51.64 160.2c-4.81 16.844-11.01 28.412-18.6 34.706-7.59 6.293-19.07 9.439-34.43 9.439-5.74 0-11.66-.37-17.77-1.11v-22.767c7.4.37 12.68.555 15.83.555 7.77 0 13.69-1.758 17.77-5.275 4.07-3.331 7.49-9.81 10.27-19.435l3.33-10.828h-17.21l-53.03-145.484h31.93l44.97 133.546 36.93-133.546Z" fill="#fff"/><defs><linearGradient id="a" x1="-27.673" y1="2.447" x2="512.564" y2="291.067" gradientUnits="userSpaceOnUse"><stop stop-color="#EAC0FB"/><stop offset="1" stop-color="#5F47F8"/></linearGradient></defs></svg>
